<?xml version="1.0" encoding="utf-8" ?><svg xmlns="http://www.w3.org/2000/svg" xmlns:xlink="http://www.w3.org/1999/xlink" width="1028" height="1028" viewBox="0 0 1028 1028"><path fill="#F3E166" d="M0 0L257.008 0L642.491 0L1028 0L1028 385.507L1028 771.029L1028 1028L0 1028L0 0Z"/><path fill="#9BD2C8" d="M0 0L257.008 0L256.998 771.052L1028 771.029L1028 1028L0 1028L0 0Z"/><path fill="#EA5E5D" d="M642.491 0L1028 0L1028 385.507L642.492 385.505L642.491 0Z"/><path fill="#00537F" d="M781.594 104.047C785.727 103.763 804.984 103.102 808.017 105.025C811.025 112.692 808.178 149.531 808.075 159.889C808.041 163.383 803.582 172.978 805.315 175.688C808.865 175.705 818.256 165.357 824.358 163.495C886.951 144.397 909.95 214.098 887.627 260.762C886.765 262.336 885.827 263.868 884.817 265.352C864.456 295.774 823.841 292.299 795.048 278.167C790.481 275.925 785.246 274.674 780.974 271.749C780.524 262.792 780.789 251.837 780.788 242.717L780.795 191.362L780.777 137.191C780.776 131.607 780.127 108.029 781.594 104.047Z"/><path fill="#EA5E5D" d="M834.154 185.876C840.879 185.419 847.146 185.742 853.09 189.611C870.912 201.215 871.427 233.334 861.504 250.073C857.439 256.93 850.769 260.765 843.266 262.404C830.381 264.596 819.931 260.488 808.665 255.079C808.649 230.759 802.501 191.507 834.154 185.876Z"/><path fill="#00537F" d="M371.598 554.36C385.615 552.653 400.09 554.682 413.121 559.066C457.507 573.997 448.496 621.71 449.068 657.181C449.282 670.46 449.932 700.89 448.287 705.33C445.451 707.578 436.367 706.77 432.621 706.959C423.549 707.417 426.032 696.45 422.397 691.986C417.312 689.822 409.932 700.536 404.446 703.169C383.603 713.175 356.431 712.797 336.961 699.852C325.457 690.304 320.675 679.476 320.457 664.408C320.278 652.084 323.731 639.742 332.717 630.882C347.908 615.901 368.406 615.968 388.316 615.958L415.216 615.979C414.99 580.643 380.276 582.214 354.843 588.687C352.036 589.401 344.961 592.104 342.396 591.128C339.491 587.484 335.684 571.458 334.09 566.366C331.863 559.251 367.656 554.688 371.598 554.36Z"/><path fill="#F3E166" d="M371.761 643.148C374.995 642.636 384.438 642.756 387.903 642.762L415.199 642.846C414.905 658.93 411.618 669.509 395.928 676.809C394.124 677.459 392.281 677.997 390.411 678.419C381.859 680.418 370.067 681.006 362.423 676.02C358.353 673.399 355.514 669.244 354.551 664.499C351.956 651.862 360.119 644.908 371.761 643.148Z"/></svg>